Coordinates
version=1
nRows=21
nColumns=12
inDegrees=yes

Units are S.I. units (second, meters, Newtons, ...)
Angles are in degrees

endheader
time	SC_y	SC_z	SC_x	AC_y	AC_z	AC_x	GH_y	GH_z	GH_yy	EL_x	PS_y
       0.0              -36.61          17.74          7.381          45.14          -5.18         -9.438          -91.6         -5.684         -29.34          108.8          120.0
   0.01801              -36.61          17.75          7.391          45.14         -5.181         -9.438         -91.57         -5.685         -29.36          108.8          120.0
   0.03603              -36.61          17.75          7.403          45.14         -5.181         -9.439         -91.55         -5.687         -29.37          108.8          120.0
   0.05404              -36.62          17.75          7.415          45.15         -5.181          -9.44         -91.52         -5.688         -29.39          108.7          119.9
   0.07206              -36.62          17.75          7.427          45.15         -5.182         -9.441         -91.49          -5.69         -29.41          108.7          119.9
   0.09007              -36.62          17.75          7.441          45.15         -5.182         -9.442         -91.45         -5.692         -29.42          108.7          119.9
    0.1081              -36.62          17.75          7.456          45.15         -5.183         -9.443         -91.42         -5.693         -29.44          108.7          119.9
    0.1261              -36.62          17.75          7.471          45.15         -5.183         -9.444         -91.38         -5.695         -29.46          108.7          119.9
    0.1441              -36.62          17.76          7.488          45.15         -5.184         -9.445         -91.34         -5.697         -29.48          108.7          119.9
    0.1621              -36.62          17.76          7.506          45.16         -5.184         -9.446         -91.29           -5.7         -29.51          108.7          119.9
    0.1801              -36.62          17.76          7.525          45.16         -5.185         -9.447         -91.24         -5.702         -29.53          108.6          119.9
    0.1982              -36.62          17.76          7.546          45.16         -5.186         -9.449         -91.19         -5.705         -29.56          108.6          119.9
    0.2162              -36.62          17.76          7.568          45.16         -5.186          -9.45         -91.14         -5.708         -29.59          108.6          119.9
    0.2342              -36.62          17.77          7.592          45.17         -5.187         -9.452         -91.08         -5.711         -29.62          108.6          119.9
    0.2522              -36.62          17.77          7.618          45.17         -5.188         -9.454         -91.01         -5.714         -29.66          108.5          119.9
    0.2702              -36.62          17.77          7.647          45.17         -5.189         -9.456         -90.94         -5.717         -29.69          108.5          119.9
    0.2882              -36.62          17.78          7.677          45.18          -5.19         -9.458         -90.87         -5.721         -29.73          108.5          119.9
    0.3063              -36.62          17.78          7.711          45.18         -5.191          -9.46         -90.78         -5.726         -29.78          108.5          119.9
    0.3243              -36.62          17.78          7.748          45.19         -5.192         -9.463         -90.69          -5.73         -29.82          108.4          119.9
    0.3423              -36.62          17.79          7.788          45.19         -5.193         -9.465          -90.6         -5.735         -29.88          108.4          119.9
    0.3603              -36.63          17.79          7.832           45.2         -5.195         -9.468         -90.49         -5.741         -29.93          108.4          119.9
